<?xml version="1.0" encoding="UTF-8" standalone="no"?>
<!-- Created with Inkscape (http://www.inkscape.org/) -->

<svg
   version="1.1"
   id="svg1"
   width="1056"
   height="441.33334"
   viewBox="0 0 1056 441.33334"
   sodipodi:docname="otis-white.svg"
   inkscape:version="1.3 (0e150ed6c4, 2023-07-21)"
   xmlns:inkscape="http://www.inkscape.org/namespaces/inkscape"
   xmlns:sodipodi="http://sodipodi.sourceforge.net/DTD/sodipodi-0.dtd"
   xmlns="http://www.w3.org/2000/svg"
   xmlns:svg="http://www.w3.org/2000/svg">
  <defs
     id="defs1" />
  <sodipodi:namedview
     id="namedview1"
     pagecolor="#ffffff"
     bordercolor="#111111"
     borderopacity="1"
     inkscape:showpageshadow="0"
     inkscape:pageopacity="0"
     inkscape:pagecheckerboard="1"
     inkscape:deskcolor="#d1d1d1"
     inkscape:zoom="0.70785985"
     inkscape:cx="401.91572"
     inkscape:cy="122.19933"
     inkscape:window-width="1920"
     inkscape:window-height="1009"
     inkscape:window-x="1912"
     inkscape:window-y="-8"
     inkscape:window-maximized="1"
     inkscape:current-layer="g1" />
  <g
     inkscape:groupmode="layer"
     inkscape:label="Image"
     id="g1">
    <path
       style="fill:#f9f9f9;stroke:none"
       d="m 161.33333,17.740423 c -21.40213,2.84448 -41.61892,8.3374 -60,20.15535 C 27.257645,85.522113 17.308167,189.40966 80,250.48838 c 13.182595,12.84338 29.50058,22.32774 46.66667,28.78601 23.91843,8.99866 49.71122,8.97298 74.66666,5.68827 17.58031,-2.31398 34.59735,-9.75673 49.33334,-19.38271 97.68742,-63.8123 70.71425,-213.217587 -40,-243.636857 -15.612,-4.28947 -33.18577,-6.34879 -49.33334,-4.20267 m 516,0.0535 c -27.19979,4.90405 -44.57055,29.03784 -57.33231,51.38065 -28.95927,50.700777 -41.07866,109.867567 -68.63477,161.333347 -14.64127,27.34509 -36.06522,69.3858 -72.69958,67.94649 -7.1628,-0.28141 -16.62936,-1.81201 -22.49488,-6.21604 -7.40905,-5.56297 -12.49113,-17.38043 -24.09362,-11.02676 -9.37309,5.13282 -5.40516,17.47736 1.28088,22.60905 13.30082,10.2087 31.08785,16.26681 47.97428,15.84878 37.1451,-0.91954 61.94959,-30.28713 79.46298,-59.82819 35.35778,-59.6404 45.91927,-133.47723 84.82511,-190.666677 6.89307,-10.13244 24.4576,-34.31925 39.5144,-30.60905 6.30803,1.5544 2.56218,10.19116 3.78703,14.58846 2.68669,9.64567 19.24471,11.41105 23.98145,2.5422 2.52677,-4.73096 0.46761,-9.7013 -0.5236,-14.52161 -3.9716,-19.31425 -15.11394,-26.97461 -35.04737,-23.38065 m -320,24.71398 V 223.84125 c 0,12.86717 1.83977,27.35749 -0.68518,40 -1.302,6.51931 -3.82914,14.50574 3.49691,18.62964 6.97762,3.92774 18.59566,1.02067 21.52673,-6.65023 4.03532,-10.56087 -0.33846,-31.01096 -0.33846,-42.64607 V 107.84126 c 0,-20.341647 3.38497,-44.182057 -1.33333,-64.000007 18.76416,-4.46741 42.06665,-1.81682 61.33333,-1.31381 7.47119,0.19507 16.84758,5.25525 23.62862,0.16976 6.93986,-5.20463 5.49109,-18.13586 -2.35392,-21.51029 -9.67842,-4.16305 -27.8951,-0.0123 -38.60803,-0.0123 H 320 c -12.83744,0 -31.91933,-4.08032 -43.97943,-0.56893 -9.803,2.85425 -10.9926,18.31083 -1.29527,22.24589 10.4679,4.24772 31.02169,-0.34363 42.60803,-0.34363 h 40 M 484.0247,22.164313 c -5.10991,2.0212 -7.68034,7.04798 -7.77983,12.34363 -0.2889,15.37773 1.08846,31.17664 1.08846,46.66667 V 238.50796 c 0,13.35781 -8.66581,54.66111 17.30864,44.34363 5.10412,-2.02747 7.71488,-7.02726 7.67285,-12.34363 -0.12256,-15.49609 -0.98149,-31.09619 -0.98149,-46.66667 V 65.174583 c 0,-12.1025 7.21684,-52.71118 -17.30863,-43.0103 M 164,38.888573 c 14.31714,-1.71228 30.25098,-0.20809 44,4.08231 91.98824,28.70517 107.44196,151.460607 29.33333,205.019547 -12.92824,8.86487 -28.45414,14.75318 -44,16.79836 C 166.5916,268.3069 139.30682,264.08471 116,249.88962 61.1028,216.4543 42.942617,139.04601 81.97119,86.507913 91.22472,74.051333 102.78807,62.808613 116,54.595363 c 14.73221,-9.15837 30.89849,-13.6615 48,-15.70679 m 500,55.61934 V 282.50793 h 36 v -8 H 673.33333 V 94.507913 H 664 m 48,0 V 282.50793 h 10.66667 V 94.507913 H 712 m 21.33333,0 V 282.50793 c 12.36581,0 33.44947,3.59049 41.69646,-8.12553 4.00065,-5.68345 3.63435,-13.26819 3.63688,-19.87447 0.007,-16.81974 5.61897,-46.11046 -2.09668,-61.2747 -2.84139,-5.58443 -8.24707,-6.87171 -13.90332,-8.05864 5.6827,-2.31412 11.01448,-4.56274 13.52262,-10.67181 6.02279,-14.6697 1.15015,-40.17306 1.14404,-55.99485 -0.003,-6.5954 0.23747,-13.17316 -4.52571,-18.38171 -8.63835,-9.446017 -27.90072,-5.618307 -39.47429,-5.618307 m 56,0 V 282.50793 h 9.33334 v -93.33334 c 7.70426,0 16.43628,-0.87715 21.91455,5.77263 C 825.79915,201.281 824,212.22804 824,219.84126 v 62.66667 h 9.33333 v -64 c 0,-14.94265 1.71973,-25.8417 -13.33333,-33.33334 21.21842,-6.65633 13.33333,-43.41219 13.33333,-61.33333 0,-7.40654 1.70313,-17.30371 -3.53702,-23.36112 -8.60303,-9.944717 -28.70378,-5.972227 -40.46298,-5.972227 m 73.33334,0 -21.33334,188.000017 h 9.33334 l 5.33333,-56 h 26.66667 l 5.33333,56 h 10.66667 L 886.44548,177.17459 877.33333,94.507913 h -14.66666 m 42.66666,0 V 282.50793 h 9.33334 v -93.33334 c 7.65088,0 16.51831,-0.95729 21.98152,5.61831 5.29004,6.36713 3.35181,17.36098 3.35181,25.04836 v 62.66667 h 9.33333 v -70.66667 c 0,-11.41766 0.21615,-22.59768 -13.33333,-25.33333 20.44372,-11.38711 13.33333,-40.64468 13.33333,-61.33334 0,-8.25138 2.18303,-19.83362 -4.45882,-26.108017 -8.80314,-8.31606 -28.39209,-4.55866 -39.54118,-4.55866 m 51.99999,0 20.9331,112.000017 0.4002,76 h 9.3334 l 0.3858,-73.33334 20.94758,-114.666677 h -9.3333 L 984.00002,194.50793 c -9.6049,-22.75627 -8.2918,-51.84872 -13.4877,-76 -2.319,-10.77948 0.6751,-23.834937 -13.179,-24.000017 M 744,181.17459 v -80.00001 c 6.31323,0 15.72957,-1.566707 20.64819,3.35186 4.17627,4.17619 3.34969,11.26794 3.35181,16.64815 0.005,13.338 5.93685,46.2886 -3.60392,56.56995 -4.75904,5.12846 -14.09587,3.43005 -20.39608,3.43005 m 54.66667,0 v -80.00001 c 6.59725,0 16.84204,-1.787547 21.98152,3.35186 4.17627,4.17617 3.34969,11.26796 3.35181,16.64815 v 40 c -0.002,5.586 0.63566,12.3393 -3.53703,16.75515 -4.9244,5.21135 -15.30721,3.24485 -21.7963,3.24485 m 116,0 v -80.00001 c 6.69661,0 16.79939,-1.743017 22.08846,3.35186 4.29215,4.13456 3.24454,11.25165 3.24487,16.64815 v 40 c -0.002,5.45376 0.78068,12.46509 -3.35181,16.75515 -5.00643,5.19733 -15.44051,3.24485 -21.98152,3.24485 m -45.33334,-76 c 6.73902,36.29912 11.8982,77.75649 12,114.66667 h -24 l 7.77368,-74.66667 4.22632,-40 M 742.66667,273.1746 C 743.52189,261.13146 744,249.26798 744,237.1746 v -22.66667 c -4.1e-4,-6.01113 -3.08228,-16.86953 -0.5236,-22.2428 3.36409,-7.06462 21.12589,-3.22414 24.28491,2.38786 2.87736,5.11155 1.57202,12.87616 1.57202,18.5216 v 40.00001 c 0,5.38486 1.45158,13.6512 -2.32308,18.08848 -4.79655,5.63849 -18.1298,3.74825 -24.34358,1.91152 m -685.33334,36 v 2.66666 c 110.80196,0 221.87688,-11.24696 330.66667,16.04836 33.30933,8.35728 66.31584,23.81017 94.66667,43.07717 9.7159,6.60283 18.93347,14.03357 28,21.4928 3.24048,2.66602 7.42911,8.39181 12,8.44442 4.80395,0.0553 9.9886,-6.18302 13.33333,-9.06274 8.93172,-7.69007 18.28634,-14.63973 28,-21.30042 29.4777,-20.21281 63.93766,-35.38377 98.66667,-43.9856 106.7679,-26.44476 216.71313,-14.71399 325.33335,-14.71399 v -2.66666 c -111.29527,0 -222.68467,-11.50399 -332.00002,15.86006 -32.33598,8.09445 -64.10486,22.44609 -92,40.59982 -9.71777,6.32418 -19.087,13.35669 -28,20.7675 -3.28642,2.7325 -8.36414,9.1713 -12.7675,9.7469 -4.01631,0.52499 -8.5203,-5.42582 -11.2325,-7.73767 -8.91634,-7.60014 -18.25708,-14.5166 -28,-21.0144 C 452.41475,346.33187 416.78861,331.56516 380,322.368 274.67662,296.03717 164.46071,309.1746 57.33333,309.1746 m -15.999997,21.33333 v 5.33333 c 111.632037,-0.92419 225.522497,-16.66699 335.999997,6.82512 36.26742,7.71191 71.259,22.50732 102.66667,41.9897 10.29126,6.38371 20.04277,13.77019 29.33333,21.52365 3.52149,2.93888 8.3545,8.8199 13.33334,8.8138 5.41329,-0.007 10.78019,-6.92652 14.66666,-10.08024 11.48918,-9.32312 23.52344,-17.55058 36,-25.4784 31.03231,-19.71846 68.33448,-30.98938 104,-38.71089 106.46078,-23.04871 219.0673,-5.77356 326.66677,-4.88274 v -5.33333 c -110.87656,0 -223.46437,-16.43715 -333.33343,6.21914 C 634.69279,344.1453 599.55505,356.9624 568,375.84228 c -11.20544,6.70439 -21.8444,14.2074 -32,22.40332 -3.51953,2.84038 -8.49276,8.8055 -13.33333,8.98043 -4.89136,0.17676 -9.83985,-6.15519 -13.33334,-8.97839 C 498.82275,389.75378 487.62366,382.00264 476,375.1108 442.68494,355.35783 405.71049,343.4327 368,335.3896 261.21472,312.61393 149.20633,330.50793 41.333333,330.50793 m -5.333333,16 -2.666667,14.66667 c 110.283447,-6.69495 228.087527,-21.48251 337.333337,1.61417 34.26123,7.24349 67.13545,18.3193 97.33333,36.32309 21.51697,12.82828 35.12805,33.21525 61.33333,32.72322 15.77592,-0.29618 32.03565,-23.15922 45.33334,-31.70369 29.53214,-18.976 63.22395,-30.85714 97.33333,-38.39096 114.69954,-25.3339 232.51213,-9.68001 348.0001,-0.56583 -1.6856,-4.10828 -3.2945,-10.38021 -7.2243,-12.90947 -4.903,-3.15564 -12.5889,-1.56795 -18.10915,-1.80969 -13.77213,-0.60303 -27.52963,-2.54329 -41.33332,-2.61519 -63.69848,-0.33183 -126.7181,-6.85165 -190.66666,-4.05148 -55.37159,2.42465 -111.90902,11.83082 -162.66667,35.1307 -17.46928,8.01909 -34.93176,17.06543 -50.66667,28.1543 -6.65771,4.69193 -18.57747,16.60819 -26.66666,17.43209 -5.01962,0.51127 -9.79236,-5.2391 -13.33334,-8.06584 -9.77376,-7.80229 -19.94665,-14.96728 -30.66666,-21.39917 C 446.47034,371.72347 410.03276,359.78133 373.33333,352.44002 261.77958,330.125 148.37669,346.50793 36,346.50793 Z"
       id="path1" />
  </g>
</svg>
