<?xml version="1.0" encoding="UTF-8" standalone="no"?>
<!-- Created with Inkscape (http://www.inkscape.org/) -->

<svg
   version="1.1"
   id="svg1"
   width="2000"
   height="1667.4006"
   viewBox="0 0 2000 1667.4006"
   sodipodi:docname="otis_line_drawing.svg"
   inkscape:version="1.3 (0e150ed6c4, 2023-07-21)"
   xmlns:inkscape="http://www.inkscape.org/namespaces/inkscape"
   xmlns:sodipodi="http://sodipodi.sourceforge.net/DTD/sodipodi-0.dtd"
   xmlns="http://www.w3.org/2000/svg"
   xmlns:svg="http://www.w3.org/2000/svg">
  <defs
     id="defs1" />
  <sodipodi:namedview
     id="namedview1"
     pagecolor="#ffffff"
     bordercolor="#111111"
     borderopacity="1"
     inkscape:showpageshadow="0"
     inkscape:pageopacity="0"
     inkscape:pagecheckerboard="1"
     inkscape:deskcolor="#d1d1d1"
     inkscape:zoom="0.17271505"
     inkscape:cx="2232"
     inkscape:cy="1739.8599"
     inkscape:window-width="1920"
     inkscape:window-height="1009"
     inkscape:window-x="-8"
     inkscape:window-y="-8"
     inkscape:window-maximized="1"
     inkscape:current-layer="g1" />
  <g
     inkscape:groupmode="layer"
     inkscape:label="Image"
     id="g1"
     transform="translate(-3.1003454,-18.630314)">
    <path
       style="fill:#cbd5e1;fill-opacity:0.351759;stroke:none;stroke-width:6.0877"
       d="m 91.569761,413.70687 c -31.865549,19.6519 -28.334649,45.2939 -31.467049,79.1398 -4.7022,50.80813 -5.059,101.12978 -5.059,152.19188 0,221.19895 -9.56515,442.15715 -12.1988,663.55685 -0.6837,57.4752 -2.1716,119.309 -8.15918,176.5426 -2.214755,21.1702 -11.39132,56.7208 6.61378,73.4326 23.42245,21.7401 80.809198,22.965 111.147048,28.8365 47.81005,9.2534 92.54375,-4.7853 140.01655,-9.9441 95.5419,-10.3823 190.72445,-24.0806 286.1208,-35.8026 111.5883,-13.7117 223.478,-24.8323 334.8222,-40.8195 34.6657,-4.9773 94.59649,3.3045 109.57819,-33.9659 -23.08204,-19.2259 -24.24839,-38.0499 -24.35069,-66.9645 l 182.63029,-18.263 14.8156,28.3434 52.1489,2.1185 109.5782,-0.024 115.6658,0.5448 79.1398,8.6196 267.8578,-37.0146 103.4905,-11.1936 42.4445,-14.1718 3.6733,-68.538 -7.4964,-153.2254 -2.6402,-157.24611 -17.7182,-365.26059 h -30.4383 l 9.7609,-82.4561 81.5542,-81.91118 -97.4028,-24.3507 c -4.4227,-56.7717 -112.6488,-56.6861 -158.2796,-67.75355 -56.8078,-13.7783 -113.5966,-27.60385 -170.4549,-41.12005 -22.953,-5.45635 -49.2682,-17.6104 -73.0522,-16.24315 -28.1378,1.6175 -54.9948,22.4251 -79.1398,35.13555 -46.3729,24.4118 -94.748,45.29635 -140.0165,71.71815 l -6.0877,-79.1398 79.1398,-48.7014 6.0877,-54.78911 -103.4906,-24.3507 c 0.4444,-27.43552 -18.6684,-29.72765 -42.6137,-35.88248 L 1114.2995,138.99005 C 1016.9989,114.67125 919.65636,90.605866 822.09096,67.412791 787.76441,59.252501 753.33736,43.983876 718.60046,38.670186 683.35281,33.278271 616.00786,67.862546 609.02226,103.23433 524.77127,79.326436 438.33841,66.325836 353.33991,45.557176 318.98121,37.161966 272.67586,14.343162 237.65061,19.337002 196.45341,25.210822 150.64951,65.893366 115.92051,88.208661 85.345262,107.855 9.5680971,143.52251 3.9279272,182.92451 c -2.473605,17.28048 0.318995,49.06169 12.1753548,62.53501 18.705725,21.25725 49.06358,25.39355 63.12208,52.67525 17.232299,33.4407 1.66205,79.4322 12.344399,115.57195 M 602.93461,127.58604 v 6.08767 L 249.84936,72.796941 v -24.35071 l 353.08525,79.139809 m -377.43595,-73.052129 -24.3507,12.175355 24.3507,-12.175355 m 468.7511,6.087675 V 72.796941 H 682.07441 L 694.24976,60.621586 M 1242.1407,188.4628 v 6.08768 C 1180.8208,193.51996 1118.7252,171.57151 1059.5104,157.17896 984.66301,138.98691 908.99746,124.11661 834.26631,105.43371 803.84376,97.828011 719.66581,94.172361 712.51281,60.621586 L 1242.1407,188.4628 M 176.79726,84.972296 C 159.69911,130.87679 71.051612,183.63613 24.605332,194.55048 60.743662,145.48478 123.74706,113.20713 176.79726,84.972296 m 474.83875,0 -6.08765,24.350714 h -6.0877 V 91.059971 l -24.3507,12.175359 36.52605,-18.263034 m 395.69899,164.367274 -6.0876,24.3507 -505.03738,-107.06043 -335.06206,-69.482189 85.2275,6.576279 188.7179,37.65331 127.84125,20.71971 444.40039,87.24262 M 688.16206,93.089301 c 4.70825,0 0.97525,3.030445 -2.029,2.029085 l 2.029,-2.029085 m 30.4384,6.087674 c 4.7082,0 0.97525,3.030445 -2.029,2.029085 l 2.029,-2.029085 m 30.4384,4.058355 -6.0877,6.08768 6.0877,-6.08768 m 24.3507,6.08768 v 6.08767 h -18.26305 l 18.26305,-6.08767 m 24.3507,8.117 2.02905,2.02908 c -3.0043,1.00137 -6.73665,-2.02908 -2.02905,-2.02908 m 225.24404,168.42561 -66.96444,54.7891 c 1.7697,-70.02105 -99.07815,-67.3018 -152.1919,-77.92315 L 420.30436,186.02962 310.72616,164.0886 c -19.09895,-3.89295 -41.2138,-12.91324 -60.8768,-9.69043 -60.3386,9.88968 -102.27175,87.97406 -164.367248,94.37775 -18.58835,1.917 -37.83015,-11.55027 -54.789105,-17.69938 l 97.402853,-67.11944 60.87675,-38.47539 85.2275,13.55628 176.54255,40.29799 206.98105,36.06577 249.59475,49.85222 115.66584,20.61165 m -304.38384,-164.36726 -6.08765,6.08768 6.08765,-6.08768 m 620.94304,127.84121 -158.2796,-34.25255 -371.34829,-87.50098 121.75355,17.53963 286.12084,65.10442 121.7535,39.10948 M 925.58151,200.63816 v 6.08768 l -316.55925,-66.96445 91.31515,9.59655 225.2441,51.28022 m -158.27965,-66.96445 -6.08765,6.08768 6.08765,-6.08768 m 170.455,316.55921 h -12.17535 c 0,-30.84365 12.98865,-100.62475 -9.761,-124.2571 -13.50735,-14.03185 -39.30385,-14.0127 -57.20345,-17.34715 -16.51165,-3.07595 -42.019,-14.1813 -56.3579,-0.58745 -33.0914,31.3735 18.0171,101.89635 -41.04495,111.753 l 6.08765,-127.8412 c -30.83465,-1.3239 -61.0551,-7.5994 -91.31515,-13.42955 -14.9562,-2.88165 -32.69445,-7.6647 -45.73245,3.213 -34.091,28.4416 11.3578,98.1167 -45.5827,107.61935 l 18.26305,-121.7535 c -31.3546,-7.7243 -117.9439,-38.19307 -142.43095,-10.1508 -25.80565,29.552 3.54605,86.94675 -40.1993,101.46595 l -3.2646,-60.8768 1.1414,-52.8538 -46.57825,-17.84962 -115.66585,-8.43636 v -42.61374 l 164.3673,30.43375 334.82215,65.23112 121.75355,24.56675 54.61985,18.12685 6.25695,44.27185 v 91.31515 m 377.43594,-182.6303 c -11.3845,17.6427 -30.8432,41.74 -54.7891,40.07715 -25.2182,-1.7512 -81.2723,-36.2795 -104.1668,-18.263 -35.2008,27.7007 6.0213,115.3175 -35.8497,124.2901 7.3399,-58.07445 30.3373,-137.95 -48.7014,-146.10425 -19.368,-54.33114 -80.24904,-49.41491 -127.84129,-60.87679 l 6.0877,-24.35071 206.98099,45.81263 158.2796,39.41487 M 225.49866,188.4625 c 0,36.37801 16.9511,120.22077 -24.3507,133.92887 l -6.08765,-85.22745 c -50.9835,21.99715 -85.0226,45.4746 -85.2275,103.4905 h -6.0877 v -73.0521 L 225.49866,188.4625 m 60.8768,42.61374 109.5782,18.26303 -6.0877,97.40285 c -27.72515,-5.1503 -77.3683,-1.1265 -99.8172,-19.3293 -19.7321,-15.99995 -12.2487,-75.90025 -3.6733,-96.33658 m -30.4384,24.35073 -6.0877,6.08765 6.0877,-6.08765 m -73.0521,12.17535 c 0,58.11615 -2.66545,83.18145 -54.7891,115.66585 2.04245,-53.6007 1.86265,-89.20845 54.7891,-115.66585 m 383.52361,12.17535 -12.1754,103.4905 -85.22746,-18.26305 6.08765,-97.4028 91.31521,12.17535 m 170.45494,133.9289 c -25.3546,-4.70995 -67.3285,-1.5713 -87.64185,-19.11325 -20.7803,-17.9452 -4.3174,-79.9175 2.41435,-102.6403 l 81.5542,21.84715 3.6733,99.9064 m 365.26059,-6.0877 h -48.7014 l 12.1754,-115.66585 c 55.7996,6.42275 33.6563,73.961 36.526,115.66585 m -60.8767,-97.40285 -16.6943,85.0584 -68.53324,-5.9186 85.22754,-79.1398 m 194.8056,12.17535 v 97.40285 l -66.9644,-6.08765 6.0877,-103.49055 60.8767,12.17535 m -334.82224,12.1754 v 109.57815 l -85.22745,-12.17535 6.08765,-109.5782 79.1398,12.1754 m 620.94314,-6.0877 261.77,57.06735 97.4029,34.2478 -365.2606,-85.22745 6.0877,-6.0877 m -547.89099,164.3673 c -67.5166,-5.5147 -134.37085,-27.3455 -200.89335,-39.8142 -107.64355,-20.1762 -215.23894,-36.96945 -322.6469,-58.80045 -72.2603,-14.68725 -170.16975,-49.23905 -243.74655,-26.73705 -47.71985,14.5942 -86.49585,67.26555 -127.601698,94.9133 l 91.315148,-87.8063 48.70145,-29.4801 60.87675,10.97285 127.84125,19.80375 340.90985,63.3522 158.2796,28.7568 66.96445,24.8392 m -866.4793,-142.0458 -2.0292,4.0584 2.0292,-4.0584 m 1365.66879,8.1169 c -1.3484,30.00395 -23.3492,36.84805 -48.7014,47.78545 -54.9266,23.69645 -111.1555,65.0471 -170.4549,73.9681 l 6.0876,18.263 -24.3507,-6.08765 73.0522,-50.18575 164.3672,-83.74315 m 505.2772,103.4905 -60.8768,42.61375 v -36.52605 l -420.0496,-85.2275 6.0876,-24.3507 474.8388,103.4905 m -1870.94599,-87.2567 -2.0292,4.0584 2.0292,-4.0584 m 866.4793,142.04578 v 493.10185 l -773.13495,-24.35071 0.54485,-133.92889 11.51775,-103.4905 5.65555,-225.2441 12.72025,-140.01653 127.8412,17.06995 614.85535,116.85893 M 195.06031,401.53122 182.88496,821.5809 v 109.57819 l -6.2568,50.53335 -109.409098,46.86946 c 0,-115.90271 6.0877,-231.4392 6.0877,-346.99755 0,-52.30315 -13.594,-127.2874 5.43945,-176.51913 15.851999,-41.00285 76.989248,-86.86385 116.314098,-103.514 m 1290.58749,6.08765 v 48.7014 l -54.7891,6.0877 12.1754,97.40283 h -6.0877 c -6.6569,-22.47115 -2.2634,-51.51088 -13.8945,-72.06098 -18.6411,-32.9363 -59.3512,-5.57765 -71.333,17.2719 -28.6596,-11.53045 -45.6685,-6.6703 -73.0521,6.08763 l 60.8767,-42.61368 146.1043,-60.8768 m 401.7866,103.49048 c -16.108,-1.2694 -37.9152,-8.33028 -53.3986,-2.17478 -29.8363,11.86163 -19.6535,68.28598 -19.6535,93.48993 h -6.0877 l 6.0877,-103.49048 -86.2514,-2.19355 -5.0637,87.42103 h -12.1754 c -0.01,-26.2427 6.3665,-69.7835 -3.6964,-93.91738 -12.3379,-29.58865 -72.9705,-23.5267 -93.7064,-9.5731 l -97.4028,-36.5261 6.0877,42.61375 h -6.0877 l -6.0877,-79.1398 c 94.9471,19.5867 190.3981,37.7307 286.1208,53.2907 37.956,6.1699 87.6985,3.77155 91.3151,50.19978 m -870.5377,-91.31513 v 6.0877 h -24.35074 l 24.35074,-6.0877 m 243.507,0 -6.0876,6.0877 6.0876,-6.0877 m -164.3672,6.0877 v 6.08765 h -66.9645 l 66.9645,-6.08765 m 54.7891,6.08765 v 6.0877 h -30.4384 l 30.4384,-6.0877 m -182.63039,14.20455 c 4.7076,0 0.97525,3.03095 -2.029,2.0293 l 2.029,-2.0293 m 249.59479,16.23385 6.0877,42.61375 18.263,-6.0877 18.7233,109.57818 -0.4627,273.94544 -9.761,120.17516 -72.8829,6.1676 -179.12624,-4.5892 -6.08765,-42.61371 133.92889,-4.7537 47.6069,-15.2944 -15.2612,-66.4524 -7.995,-138.74359 24.3507,6.0877 c 6.4286,-27.0013 13.8799,-66.422 -8.7273,-88.18675 -18.3379,-17.65445 -41.6293,-12.38995 -64.3248,-11.9828 -36.2771,0.65075 -73.6603,-4.86935 -109.57819,-9.40865 l -6.0877,-182.63028 231.33179,12.17535 m 249.5947,12.17535 12.1754,73.05213 c -18.6125,-16.0161 -21.1912,-50.94703 -12.1754,-73.05213 m 115.6659,79.13978 -42.6137,-6.08765 v -73.05213 c 58.0198,0.6876 43.5609,33.25025 42.6137,79.13978 m -182.6303,-60.87673 -6.0877,91.31513 h -6.0877 v -91.31513 h 12.1754 m 280.0331,0 v 85.22743 c -47.7968,-14.16355 -42.6137,-40.47255 -42.6137,-85.22743 h 42.6137 m -66.9644,18.26298 v 48.70145 h -6.0877 l 6.0877,-48.70145 m 170.4549,0 v 85.2275 l -30.4384,-6.0877 -6.0877,-79.1398 h 36.5261 m -426.1374,6.0877 v 73.0521 h -6.0876 l 6.0876,-73.0521 m 164.3673,0 v 24.3507 h -6.0876 l 6.0876,-24.3507 m -194.8056,6.08765 v 79.1398 h -18.2631 v -79.1398 h 18.2631 m 541.8032,85.2275 c -34.5153,-11.45575 -24.3507,-54.84705 -24.3507,-85.2275 34.0368,11.2982 23.6774,55.02645 24.3507,85.2275 m -584.417,-79.1398 v 42.61375 h -6.0877 l 6.0877,-42.61375 m 517.4525,85.2275 v 6.08765 c -120.7503,-0.333 -241.4524,-65.69585 -359.1729,-25.19155 -29.8515,10.2712 -58.2097,19.1039 -79.1398,43.4546 l 146.1043,-36.5261 5.8484,121.75355 6.3269,286.12085 h -170.4549 l -62.4219,-9.761 -4.5657,-105.90486 -6.0646,-152.19194 10.6066,-64.893 62.4456,-32.50985 v -6.08765 l -66.9645,12.17535 97.4029,-43.0881 140.0165,-45.21145 280.0331,51.7735 M 371.60061,571.98615 c -5.91325,31.85155 -13.6628,66.57605 18.26305,85.22745 l -12.17535,91.3152 c 31.198,9.88965 101.0662,35.6666 118.08005,-6.4447 8.28656,-20.50865 -0.2131,-43.65095 4.6455,-64.62995 5.95556,-25.7137 36.38361,-67.7956 7.52986,-92.65855 -12.39026,-10.6766 -30.09321,-7.72155 -45.02811,-8.05585 -30.5157,-0.6832 -60.5981,-4.7536 -91.315,-4.7536 m 24.3507,18.263 103.49035,18.26305 -6.0877,24.3507 -103.4903,-6.08765 6.08765,-36.5261 m 164.36711,6.0877 -12.17535,66.96445 c 29.86799,31.63705 -0.42005,70.0913 19.89759,99.8172 16.0258,23.44515 78.8439,6.58155 101.85595,3.6733 2.8338,-24.92595 5.541,-54.5497 14.23785,-78.1064 7.89145,-21.37755 28.0143,-53.30255 9.9436,-75.65445 -9.7275,-12.03235 -28.74295,-9.996 -42.4445,-11.12775 -30.7598,-2.5409 -60.34225,-5.56635 -91.31514,-5.56635 m 724.43358,0 -6.0877,6.08765 6.0877,-6.08765 m 651.3814,438.31275 c -68.7926,0 -138.2937,2.5519 -206.9853,-0.2441 -27.0475,-1.101 -58.0636,-14.4284 -66.9601,18.5073 l 18.263,-6.0877 -25.9146,5.8105 -19.5737,-32.5803 -94.5282,-9.7562 -6.0877,-407.8744 273.9454,47.6633 104.7494,16.4076 10.9402,106.38405 12.1516,261.77015 M 876.87761,681.5645 c -2.94765,-15.8114 -2.35345,-43.79015 -15.84375,-54.6434 -8.63355,-6.9458 -22.4057,-7.1916 -32.8619,-8.78865 -25.04105,-3.8246 -84.11955,-21.79895 -100.3578,5.19515 -17.4156,28.952 2.48925,49.56235 6.68915,77.0448 3.3762,22.0957 -10.31495,49.7239 0.0913,70.81155 10.10435,20.4719 78.56515,27.10965 96.10615,13.68315 18.29105,-14.0002 13.1488,-46.82865 17.10275,-66.6638 3.73845,-18.75405 13.8239,-26.751 29.0717,-36.6388 m 413.96209,-73.0521 v 12.17535 h -12.1754 V 608.5124 h 12.1754 m -608.76779,24.3507 v 6.08765 l -97.4028,-12.17535 97.4028,6.0877 m 1150.57099,-12.17535 -6.0877,6.08765 6.0877,-6.08765 m 85.2275,12.17535 v 6.08765 l -48.7015,-6.08765 h 48.7015 m -1065.34349,12.17535 -6.0877,18.26305 -79.1398,-18.26305 h 85.2275 m -377.436,6.08765 -6.0877,48.70145 -60.87675,-6.0877 c 1.5507,-47.2224 28.4879,-39.96605 66.96445,-42.61375 m 523.54025,6.0877 -6.0877,6.0877 6.0877,-6.0877 m -346.9976,12.17535 c -2.3316,42.0858 -23.47775,42.58495 -60.8768,42.61375 v -48.7014 l 60.8768,6.08765 m 377.43594,-6.08765 v 6.08765 h -18.263 l 18.263,-6.08765 m 127.8413,6.08765 v 36.52605 h -12.1754 l 12.1754,-36.52605 m -334.82229,12.17535 -6.0877,48.70145 h -60.87675 c 11.8253,-48.90545 17.20865,-50.7997 66.96445,-48.70145 m 176.54265,12.17535 18.26304,6.0877 -6.0877,109.5782 h -18.26304 l 6.0877,-115.6659 M 1126.47,803.31805 h -54.7891 c 0,-24.68555 -9.1961,-73.4061 7.1774,-93.7061 12.5333,-15.5384 34.4781,-5.3278 41.3268,9.869 11.0625,24.5493 6.2849,57.6077 6.2849,83.8371 m -651.38149,-85.2275 v 24.35075 l -73.05215,-12.17535 6.0877,-18.26305 66.96445,6.08765 m 572.24169,-6.08765 v 109.5782 l 85.2275,6.08765 v 6.0877 h -109.5782 l 24.3507,-121.75355 m 547.8909,66.96445 18.2631,-6.0877 v 91.31515 l 48.7014,-18.263 -36.5261,-6.0877 v -6.08765 l 60.8767,24.3507 V 785.055 h 12.1754 c 7.8908,38.7913 -5.9112,86.78514 48.4335,84.63089 9.0524,-0.35855 16.0003,-2.94464 24.6186,-5.49109 l 6.0877,-79.1398 h 6.0877 c 8.8947,23.42125 -0.6435,63.5349 13.2888,81.5542 13.4093,17.34339 69.1779,14.79029 53.6756,-14.58975 12.8505,-18.24845 44.2921,-80.2602 30.2412,-100.7051 -13.6638,-19.88095 -46.2013,-10.75405 -66.2224,-11.42845 -44.5344,-1.50015 -89.9692,-6.4421 -134.4738,-9.5871 -21.7061,-1.5339 -50.8637,-6.12735 -71.1168,4.4624 -16.2711,8.50765 -13.9249,28.62465 -14.1106,44.20615 m -943.58994,-24.3507 -60.8768,-6.0877 v -18.263 c 23.0169,0.38655 55.35585,-1.41225 60.8768,24.3507 m 961.85304,-12.17535 -6.0877,18.263 6.0877,-18.263 m 18.263,6.08765 -6.0877,6.0877 6.0877,-6.0877 m 48.7013,18.26305 h -6.0876 l -36.526,-12.17535 c 18.9777,-7.68975 31.4799,-5.014 42.6136,12.17535 M 822.08611,754.61665 V 766.792 l -66.96445,-6.0877 66.96445,-6.08765 m 949.67759,6.08765 v 6.0877 l -54.7891,-6.0877 h 54.7891 m 97.4028,18.26305 -73.0521,-6.0877 c 18.151,-20.77195 58.4953,-16.3669 73.0521,6.0877 m -231.3316,0 h 6.0876 c 8.9392,20.09555 11.4223,35.6814 -12.1753,42.61375 l 6.0877,-42.61375 m 109.5781,48.7014 c -20.1021,-8.0838 -23.1533,-15.6183 -18.263,-36.52605 l 18.263,36.52605 m 91.3152,-24.3507 -24.3508,24.3507 6.0877,-30.43835 18.2631,6.08765 m -834.0118,48.7014 6.0877,36.52609 h -18.26304 l 12.17534,-36.52609 m 121.7536,0 v 36.52609 h -73.0521 l 6.0876,-30.43839 66.9645,-6.0877 m -127.84124,54.78909 158.27964,12.17535 v 6.0877 c -40.6542,0.46875 -80.9424,8.483 -121.7536,5.7213 -16.458,-1.1138 -44.34204,-3.12465 -36.52604,-23.98435 m -91.31515,121.75356 c -16.02645,29.0411 -37.866,20.7874 -66.96445,18.8079 -36.271,-2.4676 -73.23175,-0.5449 -109.5782,-0.5449 -173.92919,0 -349.8643,-16.3819 -523.54025,-6.0877 l -6.08765,-36.526 487.01415,18.0234 219.1564,6.3273 m -724.4336,-18.263 v 24.3507 l -121.753548,30.4383 c 20.3788,-29.7747 86.361798,-52.875 121.753548,-54.789 m 1442.77949,36.526 -152.1919,-6.0032 -152.192,8.6149 -115.6658,-8.5866 -206.98104,12.0626 v -18.263 l 213.06874,-4.021 243.507,3.4995 115.6659,-0.5217 54.7891,13.2182 m -687.90754,-12.1753 -6.08765,6.0876 6.08765,-6.0876 m 803.57334,18.263 v 6.0877 h -54.7891 l 54.7891,-6.0877 m 12.1754,-6.0877 18.263,6.0877 v 6.0877 l -18.263,-12.1754 m 42.6137,6.0877 v 6.0877 h -18.263 l 18.263,-6.0877 m 12.1754,0 -6.0877,6.0877 6.0877,-6.0877 m 12.1753,0 -6.0877,6.0877 6.0877,-6.0877 m 42.6138,0 -6.0877,6.0877 6.0877,-6.0877 m -1686.28659,6.0877 -6.08765,346.9976 -106.449798,-10.9118 -3.6733,-86.4911 0.54485,-219.1564 115.665848,-30.4383 m 797.48575,18.263 v 261.7701 l -194.80565,17.2296 -280.03315,20.3299 -310.4716,29.405 6.0877,-243.5071 7.1774,-93.7296 53.69935,-9.7609 h 133.9289 l 420.0498,11.6304 164.36725,6.6326 m 413.96209,-6.0877 v 6.0877 l -389.61134,30.4384 v -30.4384 l 194.71614,-11.7855 194.8952,5.6978 m 18.263,-4.0584 c 4.7076,0 0.9753,3.0306 -2.029,2.0291 l 2.029,-2.0291 m 48.7014,0 c 4.7076,0 0.9753,3.0306 -2.029,2.0291 l 2.029,-2.0291 m 493.1018,217.1271 -182.6303,12.7202 -219.1563,17.7182 -6.0877,-237.4194 298.2962,-6.0642 97.2336,15.8251 6.2569,63.2912 6.0876,133.9289 m -420.0496,36.5261 -121.5843,-9.761 -6.257,-51.1158 -12.1753,-85.2275 -66.9645,12.1754 v 133.9289 l -99.8172,-6.2568 -9.7609,-54.62 v -152.1919 l 231.3317,-13.2323 78.0501,-1.3529 7.1774,63.2866 v 164.3673 m -346.9976,42.6137 c -24.8451,-17.5534 -18.2204,-51.4491 -18.2631,-79.1398 -0.079,-51.8132 3.8426,-121.448 -12.1753,-170.4549 42.2028,-7.0965 36.526,28.5317 36.526,60.8767 0,62.9579 -6.0876,125.5114 -6.0876,188.718 m -48.7014,-249.5947 -7.248,176.5426 1.1603,79.1398 -127.84124,12.1754 v -249.5948 l 133.92894,-18.263 m -60.8768,18.263 c 0.061,13.0537 -3.0986,34.0377 6.2569,44.7651 27.6301,31.6833 42.2503,-28.4636 42.4445,-44.7651 l -18.263,18.263 -30.4384,-18.263 m -60.8768,6.0877 c -7.6516,37.0788 8.4016,45.7123 42.6138,48.7014 l -6.0877,-48.7014 -18.2631,12.1753 -18.263,-12.1753 m 152.1919,0 6.0877,6.0876 -6.0877,-6.0876 m -127.8412,18.263 -6.0877,6.0877 6.0877,-6.0877 m -18.263,42.6137 c -3.7305,12.7644 -8.8168,27.5856 -2.3955,40.6597 16.8744,34.3571 43.5427,-9.9365 45.0092,-28.4843 3.2673,9.8425 5.3316,24.7816 12.26,32.881 29.3657,34.3287 68.6459,-27.5161 28.508,-46.5971 -23.1472,-11.0034 -57.7666,4.7134 -83.3817,1.5407 m 353.0853,6.0877 v 121.7536 c -29.8637,-19.3608 -28.3613,-101.2998 0,-121.7536 m -267.8578,6.0877 v 24.3507 h -6.0877 l 6.0877,-24.3507 m -72.5073,60.2098 c -28.6358,8.563 -20.3432,72.5604 9.2581,63.0563 22.4958,-7.2226 20.8783,-72.0681 -9.2581,-63.0563 m 42.0689,6.7546 c 0,29.9423 -3.165,53.5439 30.4384,60.8768 l 12.1753,-60.8768 h -42.6137 m 876.6254,30.4384 c -1.6095,49.0171 -38.3773,45.3588 -79.1398,51.2615 -79.001,11.4395 -158.2406,22.1219 -237.4193,32.228 -38.658,4.9342 -75.4483,13.6022 -79.1398,-34.7881 129.3905,-34.5899 261.5229,-48.7014 395.6989,-48.7014 m -566.1539,30.4384 c 34.0886,25.8255 104.4043,12.1754 146.1043,12.1754 l 6.0876,36.526 -115.6658,6.0877 h -206.981 v -42.6137 c 51.6618,0 124.3109,13.4869 170.4549,-12.1754 m 620.943,42.6138 -298.2961,50.3548 -474.8388,73.0521 -730.52129,110.5082 -438.312798,64.381 v 6.0877 c 163.037298,0 325.922098,-35.4925 487.014208,-59.2233 332.69644,-49.0104 664.96918,-105.6308 998.37908,-149.4722 126.041,-16.5736 251.5702,-39.3188 377.4359,-57.5135 25.2036,-3.6434 46.5732,-7.4407 68.3409,-21.523 m -1018.01849,-34.9149 6.0877,109.5782 -225.24405,28.7192 -377.43605,45.3428 -188.718,23.3408 v -140.0165 l 502.31805,-41.4395 282.99235,-25.525 m -803.5734,66.9645 -6.0877,133.9289 -102.400748,-27.7844 -7.17745,-112.2322 115.665898,6.0877 m 834.01179,30.4384 -6.08764,6.0876 z"
       id="path1"
       sodipodi:nodetypes="cssssssssscccccccccccccccccccsssscccccccsscsssssscccccccccccccccssccccccccccccccccccccccccccccccccccccccccsscccccccccccccccccccccccccccsssccssccscccccccccccccssccccccccccccccccscccccccccccccscccccccccccccccccccccccccccsssccccccccccccsccccccccccccccccccccccccccccssccccccscccccsccccccscccccscccccccccccccccccccccccccccccccccssccccccccccccccccccccccccccccccccccccccccccccccccccsccccccccccccccccccssssccccccccscssscccccscccccccccccssssssscccccccccccccccccccccccccccccccccccccccccccccccccccsscccccccccccccccccccccscccscsssscccccccccccccccccccccccccccccccccccccccccccccccccsccsscccccccccccccccccccccccccccccccccccccccccccccccccccccccccccccccccccccccccccccccccccccccccccccscsccccccccscccccccccccccccscsscccccccccsccccccsscccccccccccccccsssccccccccccccccccc" />
  </g>
</svg>
