<svg xmlns="http://www.w3.org/2000/svg" viewBox="0 0 369.5 59.96"><defs><style>.cls-1{fill:#000000;}.cls-2{fill:none;stroke:#fff;stroke-miterlimit:10;}</style></defs><g id="Layer_2" data-name="Layer 2"><g id="FGM_FloGris_Logo" data-name="FGM FloGris Logo"><path id="Path_23" data-name="Path 23" class="cls-1" d="M76.66,15.2H74.8v-.51H86.07L86.19,19h-.51c-.61-3.48-1.34-3.83-5.82-3.83h-1v6.09H80c2.28,0,2.43-.84,2.42-3H83V25H82.4c0-2.46-.14-3.11-2.42-3.11H78.91v6.31h1.85v.55h-6v-.48h1.85Z"/><path id="Path_24" data-name="Path 24" class="cls-1" d="M87.9,28.26h1.69V19.17H87.9v-.49h5.43v.49H91.48v9.09h2.38c2.2,0,2.58-1.67,2.81-3.31h.48v3.8H87.9Z"/><path id="Path_25" data-name="Path 25" class="cls-1" d="M104.69,18.44c3.07,0,5,1.93,5,5.27s-1.89,5.28-5,5.28-5-1.93-5-5.28S101.62,18.44,104.69,18.44Zm0,10c2,0,2.7-1.63,2.7-4.78s-.75-4.78-2.7-4.78-2.7,1.64-2.7,4.78S102.72,28.49,104.69,28.49Z"/><path id="Path_26" data-name="Path 26" class="cls-1" d="M112.12,28.26h1.69V19.17h-1.69v-.49h5.53c1.69,0,2.91.39,2.91,2.25a2.21,2.21,0,0,1-2,2.36h-.16v0c1.59,0,2.48.51,2.6,2.46s.22,2.46,1.24,2.46h.51v.49h-1.77c-1.44,0-1.87-.71-1.87-2.7,0-1.8-.59-2.36-1.89-2.36h-1.47v4.58h1.69v.49h-5.28Zm4.78-5.08c1.24,0,1.65-.8,1.65-2.1,0-1-.41-1.91-1.55-1.91h-1.3v4Z"/><path id="Path_27" data-name="Path 27" class="cls-1" d="M125.09,28.26h1.69V19.17h-1.69v-.49h8.83l.12,3.17h-.59c-.14-1.64-.84-2.68-2.52-2.68h-2.26V23.3h1c1.24,0,1.46-.67,1.46-2.12h.47V26h-.47c0-1.83-.12-2.25-1.73-2.25h-.77v4.47h1.83c2.42,0,3.17-1.08,3.38-3.09h.59l-.11,3.58h-9.27Z"/><path id="Path_28" data-name="Path 28" class="cls-1" d="M137.8,28.26h1.69V19.17H137.8v-.49h3.91l4.85,6.84h0V19.17h-1.77v-.49h4.07v.49h-1.71v9.69h-.59l-6.48-9.2h0v8.6h1.77v.49h-4Z"/><path id="Path_29" data-name="Path 29" class="cls-1" d="M159.9,28a7.42,7.42,0,0,1-3.68,1c-3.07,0-5-1.93-5-5.27s1.89-5.27,5-5.27a8.06,8.06,0,0,1,3.68.76V22h-.59a2.82,2.82,0,0,0-2.56-3.05h-.41c-2.28,0-3,1.63-3,4.78s.68,4.78,3,4.78,3-2,3-3.46h.59Z"/><path id="Path_30" data-name="Path 30" class="cls-1" d="M162.8,28.26h1.69V19.17H162.8v-.49h8.83l.12,3.17h-.59c-.14-1.64-.84-2.68-2.52-2.68h-2.25V23.3h1.05c1.24,0,1.45-.67,1.45-2.12h.47V26h-.47c0-1.83-.12-2.25-1.73-2.25h-.77v4.47h1.83c2.42,0,3.17-1.08,3.38-3.09h.58l-.12,3.58H162.8Z"/><path id="Path_31" data-name="Path 31" class="cls-1" d="M188.4,22h5.85v.49H192.6v5.1a11.42,11.42,0,0,1-5.36,1.4c-4.26,0-6.61-3-6.61-7.27s2.62-7.26,6.89-7.26a11.18,11.18,0,0,1,4.64,1.14v3.93h-.47c-.31-2.61-2.12-4.46-4.42-4.46-3.9,0-4,4.64-4,6.65,0,2.77.32,6.67,4.08,6.67,1.91,0,3.16-.83,3.16-2.46V22.5H188.4Z"/><path id="Path_32" data-name="Path 32" class="cls-1" d="M196.49,28.26h1.7V19.17h-1.7v-.49H202c1.69,0,2.91.39,2.91,2.25a2.2,2.2,0,0,1-2,2.36h-.17v0c1.59,0,2.48.51,2.6,2.46s.23,2.46,1.24,2.46h.51v.49h-1.77c-1.43,0-1.87-.71-1.87-2.7,0-1.8-.59-2.36-1.89-2.36h-1.47v4.58h1.69v.49h-5.28Zm4.78-5.08c1.24,0,1.66-.8,1.66-2.1,0-1-.42-1.91-1.56-1.91h-1.3v4Z"/><path id="Path_33" data-name="Path 33" class="cls-1" d="M209.24,28.26h1.69V19.17h-1.69v-.49h5.27v.49h-1.69v9.09h1.69v.49h-5.27Z"/><path id="Path_34" data-name="Path 34" class="cls-1" d="M217.34,25.42h.59c.16,2,1.4,3.07,2.74,3.07a1.9,1.9,0,0,0,2-1.76c0-.05,0-.1,0-.15a1.64,1.64,0,0,0-1.34-1.73l-2.15-.79a2.6,2.6,0,0,1-1.77-2.53,3,3,0,0,1,2.85-3.1,2.16,2.16,0,0,1,.44,0,6.46,6.46,0,0,1,2.87.59l.12,2.38h-.65c-.14-1.28-.77-2.48-2.36-2.48a1.74,1.74,0,0,0-1.85,1.63v.12c0,.85.43,1.24,1.43,1.6l1.87.67a2.75,2.75,0,0,1,2.07,2.64A3.26,3.26,0,0,1,221.14,29a3,3,0,0,1-.52,0,6.19,6.19,0,0,1-3.28-.85Z"/><path id="Path_35" data-name="Path 35" class="cls-1" d="M234.52,20.06h0l-2.74,8.81h-.69l-3.16-9.69h-1.52v-.5h5.22v.49h-1.7L232,25.92h0l2.12-6.75h-1.69v-.49h5.39v.49h-1.69L238.3,26h0l2.24-6.87h-1.66v-.49h3.66v.49h-1.41l-3.23,9.69h-.69Z"/><path id="Path_36" data-name="Path 36" class="cls-1" d="M248.15,18.44c3.07,0,5,1.93,5,5.27s-1.89,5.28-5,5.28-5-1.93-5-5.28S245.08,18.44,248.15,18.44Zm0,10c2,0,2.7-1.63,2.7-4.78s-.74-4.78-2.7-4.78-2.72,1.63-2.72,4.79S246.19,28.49,248.15,28.49Z"/><path id="Path_37" data-name="Path 37" class="cls-1" d="M256.56,28.26h1.7V19.17h-1.7v-.49H262v.49h-1.85v9.09h2.38c2.2,0,2.58-1.67,2.82-3.31h.47v3.8h-9.24Z"/><path id="Path_38" data-name="Path 38" class="cls-1" d="M267.76,28.26h1.69V19.17h-1.69v-.49h6.1c3.07,0,4.94,1.93,4.94,5s-1.87,5-4.94,5h-6.1Zm5.73,0c2.3,0,3.18-2,3.18-4.54s-.88-4.55-3.18-4.55h-2.14v9.09Z"/><path id="Path_39" data-name="Path 39" class="cls-1" d="M288.29,15.18h-1.91v-.49h4.53l4.28,10.93,4.4-10.93h4.33v.49H302V28.25h1.9v.49h-6.23v-.49h2.2V15.51h0L294.45,29h-.3l-5.23-13.48h0V28.26H291v.5h-4.62v-.5h1.9Z"/><path id="Path_40" data-name="Path 40" class="cls-1" d="M306.21,18.68h5.19v.49h-1.71V26c0,1.91,1.1,2.4,2.7,2.4s2.63-.65,2.63-2.68V19.16h-1.68v-.48h3.87v.49h-1.59v6.47c0,2.52-1.07,3.35-3.78,3.35-3.16,0-4.06-.89-4.06-3.16V19.17h-1.59Z"/><path id="Path_41" data-name="Path 41" class="cls-1" d="M320.1,25.42h.59c.16,2,1.4,3.07,2.74,3.07a1.9,1.9,0,0,0,2-1.76c0-.05,0-.1,0-.15a1.63,1.63,0,0,0-1.34-1.72L322,24.07a2.62,2.62,0,0,1-1.77-2.54,3,3,0,0,1,2.85-3.1,3.23,3.23,0,0,1,.44,0,6.45,6.45,0,0,1,2.86.6l.12,2.38h-.65c-.14-1.28-.77-2.48-2.36-2.48a1.74,1.74,0,0,0-1.85,1.63v.12c0,.84.43,1.24,1.43,1.59l1.87.68A2.74,2.74,0,0,1,327,25.59,3.26,3.26,0,0,1,323.89,29a3,3,0,0,1-.52,0,6.18,6.18,0,0,1-3.28-.84Z"/><path id="Path_42" data-name="Path 42" class="cls-1" d="M329.82,28.26h1.7V19.17h-1.7v-.49h8.83l.12,3.17h-.59c-.13-1.64-.84-2.68-2.52-2.68h-2.25V23.3h1c1.24,0,1.46-.67,1.46-2.12h.47V26h-.47c0-1.83-.12-2.25-1.73-2.25h-.77v4.47h1.83c2.42,0,3.17-1.08,3.38-3.09h.58l-.12,3.58h-9.26Z"/><path id="Path_43" data-name="Path 43" class="cls-1" d="M342.27,18.68h5.19v.49h-1.72V26c0,1.91,1.1,2.4,2.7,2.4s2.64-.65,2.64-2.68V19.16h-1.7v-.48h3.88v.49h-1.59v6.47c0,2.52-1.07,3.35-3.78,3.35-3.16,0-4.06-.89-4.06-3.16V19.17h-1.59Z"/><path id="Path_44" data-name="Path 44" class="cls-1" d="M364.25,28.26H366V19.62h0l-3.74,9.24h-.59l-3.82-9.24h0v8.64h1.77v.49h-4v-.49h1.65V19.17h-1.65v-.49h3.91l3.11,7.61,3.13-7.61h3.86v.49h-1.66v9.09h1.66v.49h-5.25Z"/><path id="Path_45" data-name="Path 45" class="cls-2" d="M30,59.46A29.48,29.48,0,1,1,59.46,30,29.49,29.49,0,0,1,30,59.46Z"/><rect id="Rectangle_12" data-name="Rectangle 12" class="cls-1" x="37.05" y="23.84" width="6.47" height="19.11"/><path id="Path_73" data-name="Path 73" class="cls-1" d="M45.52,21.93,30,14.62,14.46,21.87v1.65H45.52Zm-19.35-.45c0-1.65,1.71-3,3.82-3s3.81,1.33,3.81,3Z"/><path id="Path_74" data-name="Path 74" class="cls-1" d="M43.83,23.84v21h7.05v-21Z"/><path id="Path_75" data-name="Path 75" class="cls-1" d="M43.52,43.25h-27v1.62h0v1.35H43.45V44.87h.07Z"/><rect id="Rectangle_13" data-name="Rectangle 13" class="cls-1" x="9.16" y="23.84" width="7.04" height="21.03"/><rect id="Rectangle_14" data-name="Rectangle 14" class="cls-1" x="16.51" y="23.84" width="6.37" height="19.11"/><path id="Path_76" data-name="Path 76" class="cls-1" d="M36.75,43V23.84H23.19V43ZM26.22,34.57h.12v-.13c0-1.52,1.65-2.76,3.68-2.76s3.67,1.24,3.67,2.76v.13h.12v8.27H26.22Z"/><rect id="Rectangle_15" data-name="Rectangle 15" class="cls-1" x="11.75" y="14.57" width="2.9" height="1.29"/><path id="Path_77" data-name="Path 77" class="cls-1" d="M14.65,18.48v-2.2h-2.9v2.2l-3.91,4v.8l-.13.27h6.44V21.68L21,18.48Z"/><rect id="Rectangle_16" data-name="Rectangle 16" class="cls-1" x="45.33" y="14.57" width="2.84" height="1.29"/><path id="Path_78" data-name="Path 78" class="cls-1" d="M52,23.27V22.4l-3.85-4V16.28H45.33v2.2H38.92l6.9,3.26v1.79H52v-.26Z"/><path class="cls-1" d="M80.11,40a5.07,5.07,0,0,0-2.51-1c-1.26,0-2.1,1.14-2.1,3.09s.84,3.09,2.1,3.09a5.17,5.17,0,0,0,2.51-1l.64.91a6.35,6.35,0,0,1-3.27,1.19c-1.79,0-3.28-1.29-3.28-4.22s1.49-4.23,3.28-4.23a6.28,6.28,0,0,1,3.27,1.2Z"/><path class="cls-1" d="M83.4,43.42c.08,1.24.69,2,1.63,2a5.28,5.28,0,0,0,2.28-.8l.51.77a5.81,5.81,0,0,1-2.89,1c-1.52,0-2.78-1-2.78-3.19s1.19-3.21,2.92-3.21a2.49,2.49,0,0,1,2.71,2.68,3.6,3.6,0,0,1-.09.81Zm0-.73h3.18c0-1.27-.55-1.86-1.51-1.86S83.52,41.54,83.4,42.69Z"/><path class="cls-1" d="M89.88,46.2V37.67h1.2V46.2Z"/><path class="cls-1" d="M94.41,43.42c.08,1.24.69,2,1.62,2a5.27,5.27,0,0,0,2.29-.8l.51.77a5.85,5.85,0,0,1-2.89,1c-1.52,0-2.79-1-2.79-3.19s1.2-3.21,2.93-3.21a2.48,2.48,0,0,1,2.7,2.68,4,4,0,0,1-.08.81Zm0-.73h3.18c0-1.27-.55-1.86-1.51-1.86S94.52,41.54,94.41,42.69Z"/><path class="cls-1" d="M100.84,37.67h1.21v3.15a3.18,3.18,0,0,1,2.13-.89c1.33,0,2.36,1,2.36,3.21s-1,3.19-2.36,3.19a3.13,3.13,0,0,1-2.13-.88v.75h-1.21Zm1.21,4.18v2.57a2.5,2.5,0,0,0,1.83.92c1,0,1.43-.82,1.43-2.2s-.48-2.22-1.43-2.22A2.51,2.51,0,0,0,102.05,41.85Z"/><path class="cls-1" d="M109.79,41.36A2.25,2.25,0,0,1,112.11,40v1.15a2.25,2.25,0,0,0-2.32,1.94V46.2h-1.21V40.06h1.21Z"/><path class="cls-1" d="M117.65,45.42a3.34,3.34,0,0,1-2.24.91,1.92,1.92,0,0,1-2.08-2,2,2,0,0,1,2.17-2,13.7,13.7,0,0,1,2.15.32v-.62c0-.8-.28-1.17-1.23-1.17a7.75,7.75,0,0,0-2.27.5l-.41-.86a8.68,8.68,0,0,1,2.87-.59c1.48,0,2.25.59,2.25,2.12V46.2h-1.21Zm0-.88v-1.2a10.22,10.22,0,0,0-1.72-.25c-1,0-1.37.53-1.37,1.18s.49,1.09,1.19,1.09A2.86,2.86,0,0,0,117.65,44.54Z"/><path class="cls-1" d="M120.61,40.06h.86V38.51l1.19-.23v1.78h1.68V41h-1.68v3.68c0,.51.26.63.56.63a3.42,3.42,0,0,0,1.1-.31l.45.9a4.48,4.48,0,0,1-1.79.46c-.92,0-1.51-.46-1.51-1.72V41h-.86Z"/><path class="cls-1" d="M126.32,37.71h1.31V39h-1.31Zm0,8.49V40.06h1.21V46.2Z"/><path class="cls-1" d="M131.14,40.88a4.65,4.65,0,0,1,2.48-1c1.33,0,1.78.83,1.78,1.91V46.2h-1.21V42.08c0-.66-.19-1.18-1-1.18a3.6,3.6,0,0,0-2.08.94V46.2h-1.21V40.06h1.21Z"/><path class="cls-1" d="M143.1,40.06v6.39c0,1.64-.95,2.26-2.45,2.26a11.93,11.93,0,0,1-3-.46l.24-1a11,11,0,0,0,2.53.45c1,0,1.44-.33,1.44-1.21v-1a3.13,3.13,0,0,1-2.13.88c-1.33,0-2.36-1-2.36-3.19s1-3.21,2.36-3.21a3.09,3.09,0,0,1,2.13.89v-.76Zm-1.21,4.36V41.85a2.58,2.58,0,0,0-1.84-.93c-.94,0-1.42.82-1.42,2.22s.48,2.2,1.42,2.2A2.57,2.57,0,0,0,141.89,44.42Z"/><path class="cls-1" d="M154,44.33h-3.62l-.65,1.87h-1.36L151.5,38h1.37L156,46.2h-1.37Zm-3.27-1h2.92l-1.47-4.18Z"/><path class="cls-1" d="M158.93,41.36A2.27,2.27,0,0,1,161.25,40v1.15a2.26,2.26,0,0,0-2.32,1.94V46.2h-1.2V40.06h1.2Z"/><path class="cls-1" d="M162.56,40.06h.86V38.51l1.19-.23v1.78h1.68V41h-1.68v3.68c0,.51.26.63.56.63a3.42,3.42,0,0,0,1.1-.31l.45.9a4.48,4.48,0,0,1-1.79.46c-.92,0-1.51-.46-1.51-1.72V41h-.86Z"/><path class="cls-1" d="M168.25,44.62h1.3l.12,1.71-1.11,1.55-.38-.44.66-1.24h-.59Z"/><path class="cls-1" d="M181,42.43h-3.82V46.2h-1.25V38h1.25v3.37H181V38h1.26V46.2H181Z"/><path class="cls-1" d="M184.67,37.71H186V39h-1.31Zm0,8.49V40.06h1.2V46.2Z"/><path class="cls-1" d="M193,44.58c0,1.15-1,1.75-2.31,1.75a6.62,6.62,0,0,1-2.88-.76l.52-.89a5.73,5.73,0,0,0,2.3.69c.61,0,1.16-.26,1.16-.74,0-.67-1-.89-1.78-1.1-1-.25-2.07-.66-2.07-1.87,0-1.06.88-1.73,2.24-1.73a6.33,6.33,0,0,1,2.56.63l-.51.83a5.79,5.79,0,0,0-2-.51c-.63,0-1.07.26-1.07.72,0,.67,1,.83,1.64,1C192.1,43,193,43.45,193,44.58Z"/><path class="cls-1" d="M194.43,40.06h.85V38.51l1.2-.23v1.78h1.68V41h-1.68v3.68c0,.51.25.63.56.63a3.42,3.42,0,0,0,1.1-.31l.44.9a4.43,4.43,0,0,1-1.79.46c-.91,0-1.51-.46-1.51-1.72V41h-.85Z"/><path class="cls-1" d="M202.76,46.33c-1.94,0-3-1.2-3-3.19s1-3.21,3-3.21,3,1.21,3,3.21S204.69,46.33,202.76,46.33Zm0-5.44c-1.23,0-1.76.88-1.76,2.25s.53,2.23,1.76,2.23,1.75-.86,1.75-2.23S204,40.89,202.76,40.89Z"/><path class="cls-1" d="M209,41.36A2.27,2.27,0,0,1,211.31,40v1.15A2.26,2.26,0,0,0,209,43.08V46.2h-1.2V40.06H209Z"/><path class="cls-1" d="M213.86,40.06l1.74,4.71,1.73-4.71h1.33l-3.43,8.53h-1.31L215,46.18l-2.44-6.12Z"/><path class="cls-1" d="M219.78,44.62h1.3l.13,1.71-1.12,1.55-.38-.44.66-1.24h-.59Z"/><path class="cls-1" d="M231.2,45.42a3.35,3.35,0,0,1-2.25.91,1.91,1.91,0,0,1-2.07-2,2,2,0,0,1,2.16-2,13.66,13.66,0,0,1,2.16.32v-.62c0-.8-.28-1.17-1.23-1.17a7.68,7.68,0,0,0-2.27.5l-.41-.86a8.68,8.68,0,0,1,2.87-.59c1.47,0,2.24.59,2.24,2.12V46.2h-1.2Zm0-.88v-1.2a10.54,10.54,0,0,0-1.72-.25c-1,0-1.37.53-1.37,1.18s.49,1.09,1.18,1.09A2.87,2.87,0,0,0,231.2,44.54Z"/><path class="cls-1" d="M235.91,40.88a4.65,4.65,0,0,1,2.48-1c1.34,0,1.78.83,1.78,1.91V46.2H239V42.08c0-.66-.2-1.18-1-1.18a3.6,3.6,0,0,0-2.08.94V46.2h-1.2V40.06h1.2Z"/><path class="cls-1" d="M246.66,46.2v-.75a3.13,3.13,0,0,1-2.13.88c-1.33,0-2.36-1-2.36-3.19s1-3.21,2.36-3.21a3.09,3.09,0,0,1,2.13.89V37.67h1.21V46.2Zm0-1.78V41.85a2.58,2.58,0,0,0-1.83-.93c-1,0-1.43.82-1.43,2.22s.48,2.2,1.43,2.2A2.57,2.57,0,0,0,246.66,44.42Z"/><path class="cls-1" d="M255.51,39.87V46.2h-1.26V38h1.29l4,6.33V38h1.26V46.2h-1.28Z"/><path class="cls-1" d="M267.18,45.42a3.34,3.34,0,0,1-2.24.91,1.92,1.92,0,0,1-2.08-2,2,2,0,0,1,2.17-2,13.7,13.7,0,0,1,2.15.32v-.62c0-.8-.28-1.17-1.23-1.17a7.75,7.75,0,0,0-2.27.5l-.41-.86a8.68,8.68,0,0,1,2.87-.59c1.48,0,2.25.59,2.25,2.12V46.2h-1.21Zm0-.88v-1.2a10.22,10.22,0,0,0-1.72-.25c-1,0-1.37.53-1.37,1.18s.49,1.09,1.18,1.09A2.87,2.87,0,0,0,267.18,44.54Z"/><path class="cls-1" d="M270.14,40.06H271V38.51l1.2-.23v1.78h1.68V41h-1.68v3.68c0,.51.26.63.56.63a3.42,3.42,0,0,0,1.1-.31l.44.9a4.39,4.39,0,0,1-1.79.46c-.91,0-1.51-.46-1.51-1.72V41h-.85Z"/><path class="cls-1" d="M280.11,45.38a4.54,4.54,0,0,1-2.49.95c-1.33,0-1.77-.83-1.77-1.91V40.06h1.2v4.12c0,.67.2,1.18,1,1.18a3.71,3.71,0,0,0,2.07-.92V40.06h1.21V46.2h-1.21Z"/><path class="cls-1" d="M284.88,41.36A2.25,2.25,0,0,1,287.2,40v1.15a2.26,2.26,0,0,0-2.32,1.94V46.2h-1.2V40.06h1.2Z"/><path class="cls-1" d="M289.65,43.42c.09,1.24.69,2,1.63,2a5.28,5.28,0,0,0,2.28-.8l.52.77a5.85,5.85,0,0,1-2.89,1c-1.52,0-2.79-1-2.79-3.19s1.2-3.21,2.93-3.21a2.48,2.48,0,0,1,2.7,2.68,4,4,0,0,1-.08.81Zm0-.73h3.19c0-1.27-.55-1.86-1.51-1.86S289.77,41.54,289.65,42.69Z"/></g></g></svg>