<?xml version="1.0" encoding="UTF-8"?>
<svg width="341px" height="48px" viewBox="0 0 341 48" version="1.1" xmlns="http://www.w3.org/2000/svg" xmlns:xlink="http://www.w3.org/1999/xlink">
    <title>logo</title>
    <g id="Symbols" stroke="none" stroke-width="1" fill="none" fill-rule="evenodd">
        <g id="Header-v2-Copy-2" transform="translate(-20.000000, -10.000000)">
            <g id="logo" transform="translate(20.000000, 10.000000)">
                <g id="Text" transform="translate(81.963282, 7.578808)">
                    <polygon id="Fill-1" fill="#000000" points="14.0233469 14.9542041 11.6453878 14.9542041 8.95934694 6.09722449 6.27330612 14.9542041 3.89485714 14.9542041 0 0.356816327 2.97257143 0.356816327 5.22808163 9.56204082 7.89306122 0.356816327 10.0256327 0.356816327 12.6901224 9.56204082 14.9666939 0.356816327 17.9387755 0.356816327"></polygon>
                    <path d="M25.5416816,4.66226939 L23.6966204,9.97263673 L27.3255184,9.97263673 L25.5416816,4.66226939 Z M28.9452735,14.954351 L28.0837224,12.3706776 L22.8972735,12.3706776 L22.015151,14.954351 L19.0420898,14.954351 L24.3524571,0.356473469 L26.5869061,0.356473469 L31.9178449,14.954351 L28.9452735,14.954351 Z" id="Fill-2" fill="#000000"></path>
                    <path d="M42.165551,3.80130612 C41.6938776,3.20669388 40.9964082,2.89861224 40.0329796,2.89861224 L37.8592653,2.89861224 L37.8592653,12.4119184 L40.0329796,12.4119184 C40.9964082,12.4119184 41.6938776,12.1043265 42.165551,11.5097143 C42.6979592,10.8739592 42.7601633,9.95167347 42.7601633,7.6555102 C42.7601633,5.35934694 42.6979592,4.43657143 42.165551,3.80130612 M44.6865306,12.8223673 C43.6413061,14.277551 42.2674286,14.954449 40.2788571,14.954449 L35.0101224,14.954449 L35.0101224,0.357061224 L40.2788571,0.357061224 C42.2674286,0.357061224 43.6413061,1.03346939 44.6865306,2.48914286 C45.5892245,3.74008163 45.6093061,5.23640816 45.6093061,7.6555102 C45.6093061,10.075102 45.5892245,11.5714286 44.6865306,12.8223673" id="Fill-3" fill="#000000"></path>
                    <path d="M53.8278367,15.0771429 C51.6134694,15.0771429 49.9329796,14.6049796 48.4973878,13.1497959 L50.3429388,11.3047347 C51.2652245,12.2275102 52.5156735,12.5355918 53.8479184,12.5355918 C55.5499592,12.5355918 56.4516735,11.8797551 56.4516735,10.7101224 C56.4516735,10.2183673 56.3081633,9.80791837 56.0010612,9.50081633 C55.7140408,9.23436735 55.4270204,9.11093878 54.688898,9.00808163 L52.9462041,8.74261224 C51.6546122,8.55697959 50.7729796,8.16857143 50.1171429,7.53330612 C49.4196735,6.85591837 49.0709388,5.8924898 49.0709388,4.66212245 C49.0709388,2.05885714 50.9992653,0.233877551 54.156,0.233877551 C56.1651429,0.233877551 57.6203265,0.726122449 58.8717551,1.93591837 L57.0673469,3.71926531 C56.1651429,2.83812245 55.0381224,2.71469388 54.0732245,2.71469388 C52.5568163,2.71469388 51.8382857,3.55518367 51.8382857,4.55926531 C51.8382857,4.94914286 51.9416327,5.31795918 52.2487347,5.60497959 C52.5362449,5.87191837 52.9667755,6.07714286 53.5819592,6.15893878 L55.3241633,6.42538776 C56.656898,6.61053061 57.4768163,6.95828571 58.1130612,7.57346939 C58.8918367,8.2915102 59.2400816,9.3357551 59.2400816,10.6484082 C59.2400816,13.4779592 56.9032653,15.0771429 53.8278367,15.0771429" id="Fill-5" fill="#000000"></path>
                    <polygon id="Fill-7" fill="#000000" points="75.6596571 14.9542041 73.281698 14.9542041 70.5961469 6.09722449 67.9096163 14.9542041 65.5321469 14.9542041 61.6363102 0.356816327 64.6088816 0.356816327 66.8643918 9.56204082 69.5298612 0.356816327 71.6624327 0.356816327 74.3264327 9.56204082 76.6030041 0.356816327 79.5755755 0.356816327"></polygon>
                    <path d="M89.2074612,3.55493878 C88.797502,3.0837551 88.1617469,2.77518367 87.3824816,2.77518367 C86.6041959,2.77518367 85.967951,3.0837551 85.5374204,3.55493878 C85.0045224,4.17012245 84.8409306,4.86710204 84.8409306,7.6555102 C84.8409306,10.4429388 85.0045224,11.1203265 85.5374204,11.7345306 C85.967951,12.2066939 86.6041959,12.5353469 87.3824816,12.5353469 C88.1617469,12.5353469 88.797502,12.2066939 89.2074612,11.7345306 C89.740849,11.1203265 89.9250122,10.4429388 89.9250122,7.6555102 C89.9250122,4.86710204 89.740849,4.17012245 89.2074612,3.55493878 M91.2783184,13.5389388 C90.2943184,14.5239184 89.0634612,15.076898 87.3824816,15.076898 C85.7024816,15.076898 84.4510531,14.5239184 83.4670531,13.5389388 C82.0118694,12.0837551 81.991298,10.4429388 81.991298,7.6555102 C81.991298,4.86710204 82.0118694,3.22677551 83.4670531,1.77159184 C84.4510531,0.788081633 85.7024816,0.234122449 87.3824816,0.234122449 C89.0634612,0.234122449 90.2943184,0.788081633 91.2783184,1.77159184 C92.7339918,3.22677551 92.7746449,4.86710204 92.7746449,7.6555102 C92.7746449,10.4429388 92.7339918,12.0837551 91.2783184,13.5389388" id="Fill-9" fill="#000000"></path>
                    <path d="M102.510906,2.8987102 L99.8248653,2.8987102 L99.8248653,6.75340408 L102.510906,6.75340408 C103.760865,6.75340408 104.581273,5.95405714 104.581273,4.82605714 C104.581273,3.69805714 103.760865,2.8987102 102.510906,2.8987102 L102.510906,2.8987102 Z M104.724784,14.9545469 L101.874661,9.13185306 L99.8248653,9.13185306 L99.8248653,14.9545469 L96.9747429,14.9545469 L96.9747429,0.357159184 L102.695069,0.357159184 C105.667641,0.357159184 107.430906,2.38638367 107.430906,4.82605714 C107.430906,6.87683265 106.179967,8.14785306 104.765437,8.66017959 L108.025029,14.9545469 L104.724784,14.9545469 Z" id="Fill-11" fill="#000000"></path>
                    <polygon id="Fill-13" fill="#000000" points="116.941224 2.8987102 116.941224 14.9545469 114.091592 14.9545469 114.091592 2.8987102 110.278041 2.8987102 110.278041 0.357159184 120.753796 0.357159184 120.753796 2.8987102"></polygon>
                    <polygon id="Fill-15" fill="#000000" points="132.1512 14.9542041 132.1512 8.8444898 127.210139 8.8444898 127.210139 14.9542041 124.360506 14.9542041 124.360506 0.356816327 127.210139 0.356816327 127.210139 6.32253061 132.1512 6.32253061 132.1512 0.356816327 135.000833 0.356816327 135.000833 14.9542041"></polygon>
                    <path d="M150.639576,4.66226939 L148.794024,9.97263673 L152.422922,9.97263673 L150.639576,4.66226939 Z M154.042678,14.954351 L153.180637,12.3706776 L147.994678,12.3706776 L147.112555,14.954351 L144.139984,14.954351 L149.449861,0.356473469 L151.6848,0.356473469 L157.016229,14.954351 L154.042678,14.954351 Z" id="Fill-17" fill="#000000"></path>
                    <polygon id="Fill-19" fill="#000000" points="164.249584 2.8987102 164.249584 14.9545469 161.399951 14.9545469 161.399951 2.8987102 157.5864 2.8987102 157.5864 0.357159184 168.063135 0.357159184 168.063135 2.8987102"></polygon>
                    <polygon id="Fill-21" fill="#000000" points="179.459559 14.9542041 179.459559 8.8444898 174.518498 8.8444898 174.518498 14.9542041 171.668865 14.9542041 171.668865 0.356816327 174.518498 0.356816327 174.518498 6.32253061 179.459559 6.32253061 179.459559 0.356816327 182.309682 0.356816327 182.309682 14.9542041"></polygon>
                    <polygon id="Fill-23" fill="#000000" points="187.001143 14.9542041 187.001143 0.356816327 196.616816 0.356816327 196.616816 2.89885714 189.850776 2.89885714 189.850776 6.32253061 195.611265 6.32253061 195.611265 8.86506122 189.850776 8.86506122 189.850776 12.4116735 196.616816 12.4116735 196.616816 14.9542041"></polygon>
                    <polygon id="Fill-25" fill="#000000" points="209.324669 14.9542041 203.543608 5.99436735 203.543608 14.9542041 200.693486 14.9542041 200.693486 0.356816327 203.236016 0.356816327 209.017567 9.29559184 209.017567 0.356816327 211.8672 0.356816327 211.8672 14.9542041"></polygon>
                    <polygon id="Fill-27" fill="#000000" points="216.5592 14.9542041 216.5592 0.356816327 226.173894 0.356816327 226.173894 2.89885714 219.409322 2.89885714 219.409322 6.32253061 225.169322 6.32253061 225.169322 8.86506122 219.409322 8.86506122 219.409322 12.4116735 226.173894 12.4116735 226.173894 14.9542041"></polygon>
                    <path d="M235.397682,15.0771429 C232.404049,15.0771429 230.02658,13.0469388 230.02658,9.95142857 L230.02658,0.356816327 L232.875233,0.356816327 L232.875233,9.84857143 C232.875233,11.5300408 233.859233,12.5355918 235.397682,12.5355918 C236.935641,12.5355918 237.940212,11.5300408 237.940212,9.84857143 L237.940212,0.356816327 L240.768784,0.356816327 L240.768784,9.95142857 C240.768784,13.0469388 238.390824,15.0771429 235.397682,15.0771429" id="Fill-29" fill="#000000"></path>
                    <polygon id="Fill-31" fill="#000000" points="255.610384 14.9542041 255.610384 6.44595918 252.822465 11.9816327 250.893649 11.9816327 248.086629 6.44595918 248.086629 14.9542041 245.235527 14.9542041 245.235527 0.356816327 248.044996 0.356816327 251.858547 8.24987755 255.650057 0.356816327 258.459037 0.356816327 258.459037 14.9542041"></polygon>
                    <polygon id="Fill-33" fill="#A4A6A8" points="11.9522449 39.5516082 11.9522449 31.0428735 9.16383673 36.5790367 7.23746939 36.5790367 4.4284898 31.0428735 4.4284898 39.5516082 1.57885714 39.5516082 1.57885714 24.9537306 4.38734694 24.9537306 8.20089796 32.8472816 11.9933878 24.9537306 14.8023673 24.9537306 14.8023673 39.5516082"></polygon>
                    <path d="M24.6395755,39.6750367 C21.6469224,39.6750367 19.2679837,37.6453224 19.2679837,34.5493224 L19.2679837,24.9537306 L22.1181061,24.9537306 L22.1181061,34.4464653 C22.1181061,36.1279347 23.1016163,37.1325061 24.6395755,37.1325061 C26.1775347,37.1325061 27.1816163,36.1279347 27.1816163,34.4464653 L27.1816163,24.9537306 L30.0111673,24.9537306 L30.0111673,34.5493224 C30.0111673,37.6453224 27.6327184,39.6750367 24.6395755,39.6750367" id="Fill-35" fill="#A4A6A8"></path>
                    <path d="M38.4954122,39.6750367 C36.2810449,39.6750367 34.6005551,39.2028735 33.1654531,37.7462204 L35.0110041,35.9026286 C35.9332898,36.8254041 37.1837388,37.1325061 38.5164735,37.1325061 C40.2180245,37.1325061 41.1197388,36.4756898 41.1197388,35.3070367 C41.1197388,34.8157714 40.9762286,34.4058122 40.6686367,34.0972408 C40.3821061,33.830302 40.0950857,33.7088327 39.3564735,33.6054857 L37.6137796,33.3390367 C36.3226776,33.1543837 35.4415347,32.7649959 34.7852082,32.1297306 C34.087249,31.4528327 33.7385143,30.4898939 33.7385143,29.2585469 C33.7385143,26.656751 35.6668408,24.830302 38.8235755,24.830302 C40.8327184,24.830302 42.2883918,25.3230367 43.5398204,26.5338122 L41.7354122,28.3171592 C40.8327184,27.4345469 39.7061878,27.3116082 38.7412898,27.3116082 C37.2248816,27.3116082 36.506351,28.1525878 36.506351,29.1566694 C36.506351,29.5470367 36.6092082,29.9153633 36.9168,30.2023837 C37.2043102,30.4693224 37.6353306,30.6745469 38.2500245,30.7563429 L39.9922286,31.022302 C41.3249633,31.2064653 42.1448816,31.5561796 42.7811265,32.1708735 C43.5594122,32.8889143 43.9076571,33.933649 43.9076571,35.246302 C43.9076571,38.0748735 41.5713306,39.6750367 38.4954122,39.6750367" id="Fill-37" fill="#A4A6A8"></path>
                    <polygon id="Fill-39" fill="#A4A6A8" points="47.8828408 39.5516082 47.8828408 24.9537306 57.4980245 24.9537306 57.4980245 27.4962612 50.7324735 27.4962612 50.7324735 30.9199347 56.4934531 30.9199347 56.4934531 33.4619755 50.7324735 33.4619755 50.7324735 37.0100571 57.4980245 37.0100571 57.4980245 39.5516082"></polygon>
                    <path d="M66.7218122,39.6750367 C63.7281796,39.6750367 61.3497306,37.6453224 61.3497306,34.5493224 L61.3497306,24.9537306 L64.1998531,24.9537306 L64.1998531,34.4464653 C64.1998531,36.1279347 65.1838531,37.1325061 66.7218122,37.1325061 C68.2592816,37.1325061 69.2633633,36.1279347 69.2633633,34.4464653 L69.2633633,24.9537306 L72.0934041,24.9537306 L72.0934041,34.5493224 C72.0934041,37.6453224 69.7139755,39.6750367 66.7218122,39.6750367" id="Fill-41" fill="#A4A6A8"></path>
                    <polygon id="Fill-43" fill="#A4A6A8" points="86.9335837 39.5516082 86.9335837 31.0428735 84.1451755 36.5790367 82.2183184 36.5790367 79.4093388 31.0428735 79.4093388 39.5516082 76.5601959 39.5516082 76.5601959 24.9537306 79.3691755 24.9537306 83.1822367 32.8472816 86.9747265 24.9537306 89.7832163 24.9537306 89.7832163 39.5516082"></polygon>
                    <path d="M107.246204,28.1528327 C106.836245,27.6801796 106.2,27.3730776 105.421714,27.3730776 C104.642449,27.3730776 104.006694,27.6801796 103.576163,28.1528327 C103.043265,28.7670367 102.879184,29.4645061 102.879184,32.2534041 C102.879184,35.0413224 103.043265,35.7177306 103.576163,36.3329143 C104.006694,36.8045878 104.642449,37.1322612 105.421714,37.1322612 C106.2,37.1322612 106.836245,36.8045878 107.246204,36.3329143 C107.778612,35.7177306 107.963755,35.0413224 107.963755,32.2534041 C107.963755,29.4645061 107.778612,28.7670367 107.246204,28.1528327 M109.316082,38.1373224 C108.332082,39.1208327 107.102694,39.6752816 105.421714,39.6752816 C103.740245,39.6752816 102.489796,39.1208327 101.505306,38.1373224 C100.050122,36.6811592 100.029551,35.0413224 100.029551,32.2534041 C100.029551,29.4645061 100.050122,27.8236898 101.505306,26.3680163 C102.489796,25.3854857 103.740245,24.8315265 105.421714,24.8315265 C107.102694,24.8315265 108.332082,25.3854857 109.316082,26.3680163 C110.772245,27.8236898 110.812408,29.4645061 110.812408,32.2534041 C110.812408,35.0413224 110.772245,36.6811592 109.316082,38.1373224" id="Fill-45" fill="#A4A6A8"></path>
                    <polygon id="Fill-47" fill="#A4A6A8" points="117.863412 27.4961143 117.863412 31.0838694 123.623902 31.0838694 123.623902 33.6264 117.863412 33.6264 117.863412 39.5514612 115.01378 39.5514612 115.01378 24.9540735 124.628963 24.9540735 124.628963 27.4961143"></polygon>
                    <path d="M139.345078,29.2596735 L137.500506,34.5700408 L141.128914,34.5700408 L139.345078,29.2596735 Z M142.748669,39.5517551 L141.887118,36.9685714 L136.700669,36.9685714 L135.819037,39.5517551 L132.845976,39.5517551 L138.156343,24.9538776 L140.390792,24.9538776 L145.721241,39.5517551 L142.748669,39.5517551 Z" id="Fill-49" fill="#A4A6A8"></path>
                    <path d="M154.348898,27.4961143 L151.664327,27.4961143 L151.664327,31.3498286 L154.348898,31.3498286 C155.600327,31.3498286 156.420245,30.5499918 156.420245,29.4234612 C156.420245,28.295951 155.600327,27.4961143 154.348898,27.4961143 L154.348898,27.4961143 Z M156.563265,39.5514612 L153.714122,33.7292571 L151.664327,33.7292571 L151.664327,39.5514612 L148.814204,39.5514612 L148.814204,24.9540735 L154.534041,24.9540735 C157.507102,24.9540735 159.269878,26.9842776 159.269878,29.4234612 C159.269878,31.4732571 158.018939,32.7447673 156.604408,33.2580735 L159.86449,39.5514612 L156.563265,39.5514612 Z" id="Fill-51" fill="#A4A6A8"></path>
                    <polygon id="Fill-53" fill="#A4A6A8" points="168.780196 27.4961143 168.780196 39.5514612 165.930563 39.5514612 165.930563 27.4961143 162.117012 27.4961143 162.117012 24.9540735 172.593747 24.9540735 172.593747 27.4961143"></polygon>
                </g>
                <polygon id="Fill-55" fill="#EF4135" points="42.552 3.75166564e-14 42.552 6.94089796 33.888 3.87183673 25.2244898 6.94089796 25.2244898 3.75166564e-14 18.3884082 3.75166564e-14 18.3884082 12.7146122 6.71755102 12.7146122 6.71755102 8.35640816 -1.36424205e-14 8.35640816 -1.36424205e-14 47.2540408 33.888 47.2540408 67.7769796 47.2540408 67.7769796 8.35640816 61.0579592 8.35640816 61.0579592 12.7146122 49.3880816 12.7146122 49.3880816 3.75166564e-14"></polygon>
            </g>
        </g>
    </g>
</svg>